# xmcd CD database file
#
# Track frame offsets:
#	150
#	29432
#	49059
#	66737
#	111030
#	120342
#	147284
#	156820
#	178353
#	209403
#	210411
#	217739
#	242997
#	250757
#	272971
#
# Disc length: 3794 seconds
#
# Revision: 0
# Processed by: cddbd v1.4PL0 Copyright (c) Steve Scherf et al.
# Submitted via: CDex 1.51
#
DISCID=e60ed00f
DTITLE=Dr. Dingo - Relaxin' at kartong Inn
DYEAR=1900
DGENRE=Jazz
TTITLE0=Kartong Inn
TTITLE1=Blos
TTITLE2=Point
TTITLE3=Oj!
TTITLE4=Yang
TTITLE5=Like a lover
TTITLE6=Malaika
TTITLE7=Law years
TTITLE8=Shut up and blow your drum
TTITLE9=Ramblin'
TTITLE10=Yin
TTITLE11=All my life
TTITLE12=Jo!
TTITLE13=Spirits
TTITLE14=Tico Tico
EXTD=
EXTT0=
EXTT1=
EXTT2=
EXTT3=
EXTT4=
EXTT5=
EXTT6=
EXTT7=
EXTT8=
EXTT9=
EXTT10=
EXTT11=
EXTT12=
EXTT13=
EXTT14=
PLAYORDER=
